<mxfile host="65bd71144e">
    <diagram id="HFCbob-X9opZo4Delrap" name="ページ1">
        <mxGraphModel dx="1282" dy="922" grid="1" gridSize="10" guides="1" tooltips="1" connect="1" arrows="1" fold="1" page="1" pageScale="1" pageWidth="827" pageHeight="1169" math="0" shadow="0">
            <root>
                <mxCell id="0"/>
                <mxCell id="1" parent="0"/>
                <mxCell id="2" value="対戦（開始）" style="html=1;" vertex="1" parent="1">
                    <mxGeometry x="280" y="260" width="100" height="50" as="geometry"/>
                </mxCell>
                <mxCell id="3" value="盤面を見る" style="html=1;" vertex="1" parent="1">
                    <mxGeometry x="650" y="310" width="110" height="50" as="geometry"/>
                </mxCell>
                <mxCell id="4" value="石" style="html=1;" vertex="1" parent="1">
                    <mxGeometry x="910" y="520" width="110" height="50" as="geometry"/>
                </mxCell>
                <mxCell id="5" value="勝敗" style="html=1;" vertex="1" parent="1">
                    <mxGeometry x="280" y="430" width="110" height="50" as="geometry"/>
                </mxCell>
                <mxCell id="6" value="プレイヤー" style="html=1;" vertex="1" parent="1">
                    <mxGeometry x="40" y="260" width="110" height="50" as="geometry"/>
                </mxCell>
                <mxCell id="8" value="・空&lt;br&gt;・黒&lt;br&gt;・白" style="shape=note;whiteSpace=wrap;html=1;backgroundOutline=1;darkOpacity=0.05;fillColor=#ffe6cc;strokeColor=#d79b00;" vertex="1" parent="1">
                    <mxGeometry x="780" y="560" width="80" height="100" as="geometry"/>
                </mxCell>
                <mxCell id="9" value="" style="endArrow=none;dashed=1;html=1;dashPattern=1 3;strokeWidth=2;" edge="1" parent="1">
                    <mxGeometry width="50" height="50" relative="1" as="geometry">
                        <mxPoint x="860" y="620" as="sourcePoint"/>
                        <mxPoint x="910" y="570" as="targetPoint"/>
                    </mxGeometry>
                </mxCell>
                <mxCell id="10" value="" style="endArrow=none;html=1;edgeStyle=orthogonalEdgeStyle;entryX=0;entryY=0.5;entryDx=0;entryDy=0;" edge="1" parent="1" target="2">
                    <mxGeometry relative="1" as="geometry">
                        <mxPoint x="150" y="284.5" as="sourcePoint"/>
                        <mxPoint x="310" y="284.5" as="targetPoint"/>
                    </mxGeometry>
                </mxCell>
                <mxCell id="11" value="1" style="edgeLabel;resizable=0;html=1;align=left;verticalAlign=bottom;" connectable="0" vertex="1" parent="10">
                    <mxGeometry x="-1" relative="1" as="geometry"/>
                </mxCell>
                <mxCell id="12" value="*" style="edgeLabel;resizable=0;html=1;align=right;verticalAlign=bottom;" connectable="0" vertex="1" parent="10">
                    <mxGeometry x="1" relative="1" as="geometry"/>
                </mxCell>
                <mxCell id="16" value="" style="endArrow=none;html=1;edgeStyle=orthogonalEdgeStyle;exitX=0.43;exitY=1.02;exitDx=0;exitDy=0;exitPerimeter=0;entryX=0.391;entryY=0;entryDx=0;entryDy=0;entryPerimeter=0;" edge="1" parent="1" source="2" target="5">
                    <mxGeometry relative="1" as="geometry">
                        <mxPoint x="330" y="400" as="sourcePoint"/>
                        <mxPoint x="490" y="400" as="targetPoint"/>
                    </mxGeometry>
                </mxCell>
                <mxCell id="18" value="0…1" style="edgeLabel;resizable=0;html=1;align=right;verticalAlign=bottom;" connectable="0" vertex="1" parent="16">
                    <mxGeometry x="1" relative="1" as="geometry"/>
                </mxCell>
                <mxCell id="19" value="ターン" style="html=1;" vertex="1" parent="1">
                    <mxGeometry x="510" y="250" width="110" height="50" as="geometry"/>
                </mxCell>
                <mxCell id="20" value="" style="endArrow=none;html=1;edgeStyle=orthogonalEdgeStyle;entryX=0;entryY=0.5;entryDx=0;entryDy=0;" edge="1" parent="1" target="19">
                    <mxGeometry relative="1" as="geometry">
                        <mxPoint x="380" y="289.5" as="sourcePoint"/>
                        <mxPoint x="510" y="290" as="targetPoint"/>
                    </mxGeometry>
                </mxCell>
                <mxCell id="21" value="1" style="edgeLabel;resizable=0;html=1;align=left;verticalAlign=bottom;" connectable="0" vertex="1" parent="20">
                    <mxGeometry x="-1" relative="1" as="geometry"/>
                </mxCell>
                <mxCell id="22" value="*" style="edgeLabel;resizable=0;html=1;align=right;verticalAlign=bottom;" connectable="0" vertex="1" parent="20">
                    <mxGeometry x="1" relative="1" as="geometry"/>
                </mxCell>
                <mxCell id="23" value="マス目" style="html=1;" vertex="1" parent="1">
                    <mxGeometry x="910" y="310" width="110" height="50" as="geometry"/>
                </mxCell>
                <mxCell id="30" value="" style="endArrow=none;html=1;edgeStyle=orthogonalEdgeStyle;entryX=0.5;entryY=0;entryDx=0;entryDy=0;" edge="1" parent="1" target="3">
                    <mxGeometry relative="1" as="geometry">
                        <mxPoint x="620" y="274.40999999999997" as="sourcePoint"/>
                        <mxPoint x="780" y="274.40999999999997" as="targetPoint"/>
                    </mxGeometry>
                </mxCell>
                <mxCell id="31" value="1" style="edgeLabel;resizable=0;html=1;align=left;verticalAlign=bottom;" connectable="0" vertex="1" parent="30">
                    <mxGeometry x="-1" relative="1" as="geometry"/>
                </mxCell>
                <mxCell id="32" value="1" style="edgeLabel;resizable=0;html=1;align=right;verticalAlign=bottom;" connectable="0" vertex="1" parent="30">
                    <mxGeometry x="1" relative="1" as="geometry"/>
                </mxCell>
                <mxCell id="33" value="" style="endArrow=none;html=1;edgeStyle=orthogonalEdgeStyle;entryX=0;entryY=0.5;entryDx=0;entryDy=0;" edge="1" parent="1" target="23">
                    <mxGeometry relative="1" as="geometry">
                        <mxPoint x="760" y="344.40999999999985" as="sourcePoint"/>
                        <mxPoint x="845" y="380" as="targetPoint"/>
                        <Array as="points">
                            <mxPoint x="760" y="335"/>
                        </Array>
                    </mxGeometry>
                </mxCell>
                <mxCell id="34" value="1" style="edgeLabel;resizable=0;html=1;align=left;verticalAlign=bottom;" connectable="0" vertex="1" parent="33">
                    <mxGeometry x="-1" relative="1" as="geometry"/>
                </mxCell>
                <mxCell id="35" value="1" style="edgeLabel;resizable=0;html=1;align=right;verticalAlign=bottom;" connectable="0" vertex="1" parent="33">
                    <mxGeometry x="1" relative="1" as="geometry"/>
                </mxCell>
                <mxCell id="39" value="" style="endArrow=none;html=1;edgeStyle=orthogonalEdgeStyle;" edge="1" parent="1">
                    <mxGeometry relative="1" as="geometry">
                        <mxPoint x="950" y="360.05999999999983" as="sourcePoint"/>
                        <mxPoint x="960" y="520" as="targetPoint"/>
                    </mxGeometry>
                </mxCell>
                <mxCell id="40" value="1" style="edgeLabel;resizable=0;html=1;align=left;verticalAlign=bottom;" connectable="0" vertex="1" parent="39">
                    <mxGeometry x="-1" relative="1" as="geometry"/>
                </mxCell>
                <mxCell id="41" value="1" style="edgeLabel;resizable=0;html=1;align=right;verticalAlign=bottom;" connectable="0" vertex="1" parent="39">
                    <mxGeometry x="1" relative="1" as="geometry"/>
                </mxCell>
            </root>
        </mxGraphModel>
    </diagram>
</mxfile>